<?xml version="1.0" encoding="utf-8"?>
<!-- Generator: Adobe Illustrator 19.0.0, SVG Export Plug-In . SVG Version: 6.00 Build 0)  -->
<svg version="1.1" id="Layer_1" xmlns="http://www.w3.org/2000/svg" xmlns:xlink="http://www.w3.org/1999/xlink" x="0px" y="0px"
	 viewBox="0 0 100 100" style="enable-background:new 0 0 100 100;" xml:space="preserve">
<g id="XMLID_2_">
	<path id="XMLID_10_" d="M40.5,44.2c0.7-1.1,1-2.3,1-3.5c0-1.9-0.7-3.4-2-4.6c-1.4-1.2-3.5-1.8-6.4-1.8H20.7v13h11.2
		c2.4,0,4.2-0.2,5.6-0.7C38.8,46,39.8,45.2,40.5,44.2z"/>
	<path id="XMLID_11_" d="M80.2,44.2c0.7-1.1,1-2.3,1-3.5c0-1.9-0.7-3.4-2-4.6c-1.4-1.2-3.5-1.8-6.4-1.8H60.4v13h11.2
		c2.4,0,4.2-0.2,5.6-0.7C78.5,46,79.5,45.2,80.2,44.2z"/>
	<path id="XMLID_14_" d="M50,0C22.4,0,0,22.4,0,50c0,27.6,22.4,50,50,50s50-22.4,50-50C100,22.4,77.6,0,50,0z M43.6,69.2L38.4,61
		c-1.5-2.4-2.8-4.2-3.8-5.4S32.8,53.5,32,53c-0.8-0.5-1.6-0.8-2.4-1c-0.6-0.1-1.6-0.2-2.9-0.2h-6v17.5h-5.2V29.9h17.4
		c3.5,0,6.2,0.4,8,1.1c1.8,0.7,3.3,2,4.4,3.7c1.1,1.8,1.6,3.8,1.6,5.9c0,2.8-0.9,5.1-2.7,7.1c-1.8,1.9-4.6,3.1-8.4,3.6
		c1.4,0.7,2.4,1.3,3.1,2c1.5,1.4,3,3.1,4.3,5.2l6.8,10.7H43.6z M83.3,69.2L78.1,61c-1.5-2.4-2.8-4.2-3.8-5.4c-1-1.3-1.9-2.1-2.6-2.6
		c-0.8-0.5-1.6-0.8-2.4-1c-0.6-0.1-1.6-0.2-2.9-0.2h-6v17.5h-5.2V29.9h17.4c3.5,0,6.2,0.4,8,1.1c1.8,0.7,3.3,2,4.4,3.7
		c1.1,1.8,1.6,3.8,1.6,5.9c0,2.8-0.9,5.1-2.7,7.1c-1.8,1.9-4.6,3.1-8.4,3.6c1.4,0.7,2.4,1.3,3.1,2c1.5,1.4,3,3.1,4.3,5.2l6.8,10.7
		H83.3z"/>
</g>
</svg>
