<?xml version="1.0" encoding="utf-8"?>
<!-- Generator: Adobe Illustrator 19.0.0, SVG Export Plug-In . SVG Version: 6.00 Build 0)  -->
<svg version="1.1" id="Layer_1" xmlns="http://www.w3.org/2000/svg" xmlns:xlink="http://www.w3.org/1999/xlink" x="0px" y="0px"
	 viewBox="-49 141 512 512" style="enable-background:new -49 141 512 512;" xml:space="preserve">
<style type="text/css">
	.st0{fill:#FFFFFF;}
</style>
<path class="st0" d="M207,148.1C69.5,148.1-41.9,259.5-41.9,397S69.5,645.9,207,645.9c1.8,0,3.6,0,5.3-0.1V481.7h-55.1v-68.9h55.1
	v-41.3c0-56.8,32-96.5,82.7-96.5c24.3,0,41.3,0,55.1,0v68.9h-27.6c-27.5,0-41.3,13.8-41.3,41.3v27.6h68.9l-13.8,68.9h-55.1v152.9
	c101.2-31.6,174.7-126,174.7-237.6C455.9,259.5,344.5,148.1,207,148.1z"/>
</svg>
