<?xml version="1.0" encoding="utf-8"?>
<!-- Generator: Adobe Illustrator 19.0.0, SVG Export Plug-In . SVG Version: 6.00 Build 0)  -->
<svg version="1.1" id="Layer_1" xmlns="http://www.w3.org/2000/svg" xmlns:xlink="http://www.w3.org/1999/xlink" x="0px" y="0px"
	 viewBox="-49 141 512 512" style="enable-background:new -49 141 512 512;" xml:space="preserve">
<style type="text/css">
	.st0{fill:#010101;}
</style>
<path class="st0" d="M347.2,515v-98.2c0-52.6-28.1-77.1-65.5-77.1c-30.2,0-43.8,16.6-51.3,28.3v-24.3h-56.9
	c0.8,16.1,0,171.2,0,171.2h56.9v-95.6c0-5.1,0.4-10.2,1.9-13.9c4.1-10.2,13.5-20.8,29.2-20.8c20.6,0,28.8,15.7,28.8,38.7V515
	L347.2,515L347.2,515z M113.4,320.4c19.8,0,32.2-13.2,32.2-29.6c-0.4-16.8-12.4-29.6-31.8-29.6S81.6,274,81.6,290.8
	c0,16.4,12.4,29.6,31.5,29.6H113.4z M206,648C67.1,648-45.5,535.4-45.5,396.5C-45.5,257.6,67.1,145,206,145s251.5,112.6,251.5,251.5
	C457.5,535.4,344.9,648,206,648z M141.9,515V343.8H85V515H141.9z"/>
</svg>
