<?xml version="1.0" standalone="no"?>
<!DOCTYPE svg PUBLIC "-//W3C//DTD SVG 20010904//EN"
 "http://www.w3.org/TR/2001/REC-SVG-20010904/DTD/svg10.dtd">
<svg version="1.0" xmlns="http://www.w3.org/2000/svg"
 width="415.000000pt" height="415.000000pt" viewBox="0 0 415.000000 415.000000"
 preserveAspectRatio="xMidYMid meet">
<metadata>
Created by potrace 1.11, written by Peter Selinger 2001-2013
</metadata>
<g transform="translate(0.000000,415.000000) scale(0.100000,-0.100000)"
fill="#000000" stroke="none">
<path d="M1930 4100 c-397 -30 -776 -175 -1095 -419 -84 -64 -266 -242 -338
-331 -228 -283 -377 -624 -432 -995 -22 -147 -22 -423 0 -570 53 -354 190
-680 404 -960 64 -84 242 -266 331 -338 283 -228 624 -377 995 -432 147 -22
423 -22 570 0 371 55 712 204 995 432 89 72 267 254 331 338 214 280 351 606
404 960 22 147 22 423 0 570 -53 354 -190 680 -404 960 -64 84 -242 266 -331
338 -398 322 -922 485 -1430 447z m-270 -1284 c84 -22 137 -54 193 -116 71
-79 92 -142 92 -280 0 -104 -3 -121 -27 -172 -51 -110 -156 -192 -281 -221
l-56 -12 66 -50 c37 -28 91 -82 120 -120 43 -56 287 -435 301 -467 2 -5 -79
-8 -180 -8 l-183 0 -120 182 c-156 236 -243 353 -286 384 -37 26 -119 44 -201
44 l-48 0 0 -305 0 -305 -150 0 -150 0 0 736 0 736 423 -5 c351 -4 433 -7 487
-21z m1468 0 c128 -33 202 -92 255 -204 31 -64 32 -72 32 -192 0 -145 -14
-187 -87 -266 -58 -63 -109 -94 -196 -119 l-74 -22 50 -36 c56 -42 101 -89
158 -168 44 -60 274 -424 274 -433 0 -3 -81 -6 -179 -6 l-180 0 -150 223
c-250 368 -256 373 -420 384 l-91 6 0 -307 0 -306 -150 0 -150 0 0 736 0 736
423 -5 c347 -3 433 -7 485 -21z"/>
<path d="M1050 2399 l0 -181 223 4 c197 4 227 6 268 25 142 64 123 280 -28
322 -21 6 -133 11 -250 11 l-213 0 0 -181z"/>
<path d="M2520 2401 l0 -181 178 0 c289 1 354 18 393 104 39 87 10 192 -66
230 -36 19 -61 21 -272 24 l-233 3 0 -180z"/>
</g>
</svg>
